<?xml version="1.0" standalone="no"?>
<!DOCTYPE svg PUBLIC "-//W3C//DTD SVG 20010904//EN"
 "http://www.w3.org/TR/2001/REC-SVG-20010904/DTD/svg10.dtd">
<svg version="1.0" xmlns="http://www.w3.org/2000/svg"
 width="196.000000pt" height="196.000000pt" viewBox="0 0 196.000000 196.000000"
 preserveAspectRatio="xMidYMid meet">
<metadata>
Created by potrace 1.11, written by Peter Selinger 2001-2013
</metadata>
<g transform="translate(0.000000,196.000000) scale(0.100000,-0.100000)"
fill="#000000" stroke="none">
<path d="M358 1623 c-138 -389 -260 -730 -283 -791 -20 -52 -22 -67 -12 -83 6
-10 17 -19 24 -19 7 0 13 -4 13 -9 0 -6 18 -20 40 -32 21 -12 37 -26 34 -31
-3 -5 -2 -8 3 -6 11 2 73 -35 73 -45 0 -5 4 -5 10 -2 5 3 10 1 10 -4 0 -6 7
-11 16 -11 8 0 13 -4 10 -8 -3 -4 11 -16 29 -26 19 -11 32 -23 28 -29 -4 -6
-1 -7 7 -2 8 5 17 2 24 -7 6 -8 25 -23 43 -33 18 -10 29 -23 26 -28 -3 -6 -1
-7 4 -4 6 4 16 0 23 -8 7 -8 18 -15 26 -15 7 0 19 -8 26 -17 7 -10 25 -24 41
-32 15 -8 27 -18 27 -23 0 -4 7 -8 15 -8 8 0 15 -4 15 -10 0 -5 7 -10 15 -10
9 0 18 -7 21 -15 4 -8 10 -12 15 -9 5 3 9 0 9 -6 0 -6 12 -15 26 -20 14 -6 22
-14 19 -20 -3 -5 2 -10 12 -10 10 0 30 -11 45 -24 14 -14 29 -22 32 -19 3 4 6
1 6 -5 0 -7 7 -12 16 -12 8 0 13 -4 10 -9 -3 -5 8 -14 24 -21 17 -7 30 -16 30
-21 0 -5 6 -9 14 -9 8 0 17 -7 20 -16 3 -8 10 -13 15 -10 5 3 12 -2 15 -11 6
-14 8 -14 21 3 10 13 14 15 15 5 0 -8 14 1 31 20 18 19 26 25 18 15 -12 -17
-9 -16 18 4 18 13 30 26 28 30 -3 4 3 7 13 6 9 0 16 4 15 11 -2 7 3 10 11 7 7
-3 20 1 28 8 16 15 44 34 76 50 12 6 22 16 22 21 0 5 -8 3 -17 -4 -16 -13 -17
-12 -5 3 8 9 19 15 26 12 6 -2 20 3 31 12 11 8 14 12 6 8 -10 -5 -12 -3 -7 5
6 9 11 9 22 0 12 -10 13 -9 8 5 -5 12 -2 15 12 9 11 -4 15 -3 11 4 -4 6 4 14
18 17 14 4 23 11 20 16 -6 9 16 15 38 11 5 -1 6 3 2 9 -3 5 -1 10 5 10 6 0 8
5 4 13 -5 8 -2 8 9 -2 15 -12 17 -11 17 2 0 9 5 19 12 23 7 5 8 3 3 -6 -5 -9
-4 -11 3 -6 7 4 12 15 13 24 0 13 2 13 6 3 4 -11 10 -8 25 10 11 13 17 18 13
11 -6 -11 -3 -11 14 0 12 7 19 19 16 27 -5 12 -3 12 12 0 9 -8 14 -9 10 -2 -5
7 2 14 15 19 25 7 76 44 62 44 -4 0 1 6 11 14 11 8 23 12 27 9 12 -7 59 33 50
42 -4 5 -1 5 5 1 8 -4 24 4 40 21 14 15 23 22 19 16 -4 -7 -2 -13 3 -13 11 0
15 15 12 34 -1 5 5 4 13 -4 14 -10 16 -10 16 5 0 11 5 15 15 11 13 -5 19 5 17
25 -1 4 7 5 18 2 16 -4 17 -1 10 29 -4 18 -16 58 -26 88 -10 30 -18 57 -19 60
-1 3 -4 12 -7 20 -6 15 -52 161 -54 170 0 3 -3 12 -7 20 -17 43 -70 215 -70
227 0 7 -4 13 -9 13 -5 0 -8 6 -7 13 1 6 -1 19 -4 27 -4 8 -31 94 -62 190 -79
248 -58 224 -200 226 -66 1 -327 5 -580 8 l-460 7 -67 -188z m348 -185 c5 -7
3 -8 -6 -3 -9 6 -11 4 -5 -4 5 -9 11 -9 17 -3 6 6 17 8 24 5 8 -3 22 1 31 8
13 11 15 11 9 1 -10 -16 25 -13 36 3 5 6 8 5 8 -2 0 -16 32 -17 48 -1 9 9 16
8 29 -4 12 -10 27 -13 43 -8 14 4 37 3 51 -1 15 -4 32 -3 40 2 8 5 16 3 21 -4
5 -8 8 -5 8 7 0 20 0 20 15 0 8 -10 15 -14 15 -8 0 12 41 11 59 -1 6 -3 11 -1
11 5 0 6 5 8 11 4 15 -9 138 -11 133 -2 -3 4 2 5 10 2 17 -7 22 -18 86 -219
28 -88 58 -180 66 -205 9 -25 21 -64 29 -87 l13 -41 -260 -174 c-143 -95 -262
-172 -265 -171 -16 5 -491 348 -488 352 3 2 0 10 -7 18 -9 11 -8 13 3 11 9 -2
13 4 11 16 -2 10 1 15 6 12 5 -3 8 8 7 24 -1 17 2 27 8 23 6 -4 8 1 4 11 -4
10 -3 15 3 11 6 -3 10 5 10 19 0 14 5 26 12 26 6 0 8 3 5 7 -4 3 -1 13 6 21
10 13 9 14 -3 7 -9 -5 -8 0 4 13 11 12 16 22 11 22 -4 0 -1 8 6 17 12 14 12
16 -1 9 -13 -6 -13 -6 0 6 9 7 15 20 15 28 -1 8 8 28 19 44 11 16 15 26 8 22
-8 -5 -10 -2 -6 8 3 9 10 16 15 16 5 0 9 5 9 11 0 5 -5 7 -11 4 -6 -4 -5 2 3
14 7 12 16 21 19 21 4 0 5 9 2 20 -3 12 0 20 6 20 7 0 10 3 7 8 -5 8 20 72 28
72 3 0 8 -5 12 -12z m509 -1198 c-3 -5 -12 -10 -18 -10 -7 0 -6 4 3 10 19 12
23 12 15 0z"/>
</g>
</svg>
